<mxfile host="Electron" agent="Mozilla/5.0 (Macintosh; Intel Mac OS X 10_15_7) AppleWebKit/537.36 (KHTML, like Gecko) draw.io/24.7.17 Chrome/128.0.6613.36 Electron/32.0.1 Safari/537.36" version="24.7.17">
  <diagram name="Page-1" id="Wf1FpoB9qvZqkSqXNpBX">
    <mxGraphModel dx="1010" dy="654" grid="1" gridSize="10" guides="1" tooltips="1" connect="1" arrows="1" fold="1" page="1" pageScale="1" pageWidth="850" pageHeight="1100" math="0" shadow="0">
      <root>
        <mxCell id="0" />
        <mxCell id="1" parent="0" />
        <mxCell id="MtrxTVjE-Am2wECLgYfl-28" style="edgeStyle=orthogonalEdgeStyle;rounded=0;orthogonalLoop=1;jettySize=auto;html=1;entryX=1;entryY=0.5;entryDx=0;entryDy=0;startArrow=classic;startFill=1;endArrow=none;endFill=0;" parent="1" source="MtrxTVjE-Am2wECLgYfl-1" target="MtrxTVjE-Am2wECLgYfl-27" edge="1">
          <mxGeometry relative="1" as="geometry" />
        </mxCell>
        <mxCell id="MtrxTVjE-Am2wECLgYfl-1" value="ESP32 HARDWARE" style="rounded=1;whiteSpace=wrap;html=1;" parent="1" vertex="1">
          <mxGeometry x="180" y="570" width="420" height="60" as="geometry" />
        </mxCell>
        <mxCell id="MtrxTVjE-Am2wECLgYfl-6" style="edgeStyle=orthogonalEdgeStyle;rounded=0;orthogonalLoop=1;jettySize=auto;html=1;exitX=0.623;exitY=1.033;exitDx=0;exitDy=0;entryX=0.5;entryY=0;entryDx=0;entryDy=0;exitPerimeter=0;" parent="1" source="MtrxTVjE-Am2wECLgYfl-2" edge="1" target="MtrxTVjE-Am2wECLgYfl-1">
          <mxGeometry relative="1" as="geometry">
            <mxPoint x="297" y="570" as="targetPoint" />
          </mxGeometry>
        </mxCell>
        <mxCell id="MtrxTVjE-Am2wECLgYfl-2" value="IoT Development Framework (plain C)" style="rounded=1;whiteSpace=wrap;html=1;align=center;" parent="1" vertex="1">
          <mxGeometry x="40" y="480" width="560" height="60" as="geometry" />
        </mxCell>
        <mxCell id="MtrxTVjE-Am2wECLgYfl-3" value="RTC" style="rounded=1;whiteSpace=wrap;html=1;" parent="1" vertex="1">
          <mxGeometry x="480" y="490" width="50" height="40" as="geometry" />
        </mxCell>
        <mxCell id="MtrxTVjE-Am2wECLgYfl-4" value="Logger" style="rounded=1;whiteSpace=wrap;html=1;" parent="1" vertex="1">
          <mxGeometry x="540" y="490" width="45" height="40" as="geometry" />
        </mxCell>
        <mxCell id="MtrxTVjE-Am2wECLgYfl-5" value="&amp;nbsp; &amp;nbsp; &amp;nbsp; &amp;nbsp; &amp;nbsp; &amp;nbsp; &amp;nbsp; &amp;nbsp; &amp;nbsp; &amp;nbsp; &amp;nbsp; &amp;nbsp; Arduino Framework for ESP32&amp;nbsp; (C++)" style="rounded=1;whiteSpace=wrap;html=1;verticalAlign=middle;align=left;" parent="1" vertex="1">
          <mxGeometry x="40" y="360" width="470" height="90" as="geometry" />
        </mxCell>
        <mxCell id="MtrxTVjE-Am2wECLgYfl-8" value="BLE&lt;div&gt;library&lt;/div&gt;" style="rounded=1;whiteSpace=wrap;html=1;" parent="1" vertex="1">
          <mxGeometry x="440" y="382.5" width="60" height="45" as="geometry" />
        </mxCell>
        <mxCell id="MtrxTVjE-Am2wECLgYfl-9" value="Adafruit&lt;br&gt;ADS1X15" style="rounded=1;whiteSpace=wrap;html=1;" parent="1" vertex="1">
          <mxGeometry x="40" y="284" width="70" height="45" as="geometry" />
        </mxCell>
        <mxCell id="MtrxTVjE-Am2wECLgYfl-10" value="Dallas&lt;br&gt;Temperature" style="rounded=1;whiteSpace=wrap;html=1;" parent="1" vertex="1">
          <mxGeometry x="130" y="284" width="80" height="45" as="geometry" />
        </mxCell>
        <mxCell id="MtrxTVjE-Am2wECLgYfl-11" value="OneWire" style="rounded=1;whiteSpace=wrap;html=1;" parent="1" vertex="1">
          <mxGeometry x="230" y="284" width="80" height="45" as="geometry" />
        </mxCell>
        <mxCell id="MtrxTVjE-Am2wECLgYfl-12" style="edgeStyle=orthogonalEdgeStyle;rounded=0;orthogonalLoop=1;jettySize=auto;html=1;exitX=0.5;exitY=1;exitDx=0;exitDy=0;entryX=0.373;entryY=-0.033;entryDx=0;entryDy=0;entryPerimeter=0;" parent="1" source="MtrxTVjE-Am2wECLgYfl-5" target="MtrxTVjE-Am2wECLgYfl-2" edge="1">
          <mxGeometry relative="1" as="geometry" />
        </mxCell>
        <mxCell id="MtrxTVjE-Am2wECLgYfl-23" style="edgeStyle=orthogonalEdgeStyle;rounded=0;orthogonalLoop=1;jettySize=auto;html=1;" parent="1" target="MtrxTVjE-Am2wECLgYfl-11" edge="1">
          <mxGeometry relative="1" as="geometry">
            <mxPoint x="270" y="243" as="sourcePoint" />
          </mxGeometry>
        </mxCell>
        <mxCell id="MtrxTVjE-Am2wECLgYfl-24" style="edgeStyle=orthogonalEdgeStyle;rounded=0;orthogonalLoop=1;jettySize=auto;html=1;entryX=0.5;entryY=0;entryDx=0;entryDy=0;exitX=0.232;exitY=1;exitDx=0;exitDy=0;exitPerimeter=0;" parent="1" source="MtrxTVjE-Am2wECLgYfl-14" target="MtrxTVjE-Am2wECLgYfl-10" edge="1">
          <mxGeometry relative="1" as="geometry" />
        </mxCell>
        <mxCell id="MtrxTVjE-Am2wECLgYfl-26" style="edgeStyle=orthogonalEdgeStyle;rounded=0;orthogonalLoop=1;jettySize=auto;html=1;entryX=0.5;entryY=0;entryDx=0;entryDy=0;exitX=0.063;exitY=0.967;exitDx=0;exitDy=0;exitPerimeter=0;" parent="1" source="MtrxTVjE-Am2wECLgYfl-14" target="MtrxTVjE-Am2wECLgYfl-9" edge="1">
          <mxGeometry relative="1" as="geometry" />
        </mxCell>
        <mxCell id="chsQC9fSaEB9PbkVShiE-3" style="edgeStyle=orthogonalEdgeStyle;rounded=0;orthogonalLoop=1;jettySize=auto;html=1;entryX=0.5;entryY=0;entryDx=0;entryDy=0;exitX=0.588;exitY=1.05;exitDx=0;exitDy=0;exitPerimeter=0;" edge="1" parent="1" source="MtrxTVjE-Am2wECLgYfl-14" target="chsQC9fSaEB9PbkVShiE-2">
          <mxGeometry relative="1" as="geometry" />
        </mxCell>
        <mxCell id="chsQC9fSaEB9PbkVShiE-6" style="edgeStyle=orthogonalEdgeStyle;rounded=0;orthogonalLoop=1;jettySize=auto;html=1;entryX=0.5;entryY=0;entryDx=0;entryDy=0;exitX=0.698;exitY=1.05;exitDx=0;exitDy=0;exitPerimeter=0;" edge="1" parent="1" source="MtrxTVjE-Am2wECLgYfl-14" target="chsQC9fSaEB9PbkVShiE-5">
          <mxGeometry relative="1" as="geometry">
            <Array as="points">
              <mxPoint x="431" y="370" />
              <mxPoint x="400" y="370" />
            </Array>
          </mxGeometry>
        </mxCell>
        <mxCell id="chsQC9fSaEB9PbkVShiE-7" style="edgeStyle=orthogonalEdgeStyle;rounded=0;orthogonalLoop=1;jettySize=auto;html=1;exitX=0.884;exitY=1.017;exitDx=0;exitDy=0;exitPerimeter=0;" edge="1" parent="1" source="MtrxTVjE-Am2wECLgYfl-14" target="MtrxTVjE-Am2wECLgYfl-3">
          <mxGeometry relative="1" as="geometry">
            <Array as="points">
              <mxPoint x="535" y="460" />
              <mxPoint x="505" y="460" />
            </Array>
          </mxGeometry>
        </mxCell>
        <mxCell id="MtrxTVjE-Am2wECLgYfl-14" value="Sonde ESP Application" style="rounded=1;whiteSpace=wrap;html=1;" parent="1" vertex="1">
          <mxGeometry x="40" y="180" width="560" height="60" as="geometry" />
        </mxCell>
        <mxCell id="MtrxTVjE-Am2wECLgYfl-15" style="edgeStyle=orthogonalEdgeStyle;rounded=0;orthogonalLoop=1;jettySize=auto;html=1;exitX=0.932;exitY=1;exitDx=0;exitDy=0;entryX=0.5;entryY=0;entryDx=0;entryDy=0;exitPerimeter=0;" parent="1" source="MtrxTVjE-Am2wECLgYfl-14" target="MtrxTVjE-Am2wECLgYfl-4" edge="1">
          <mxGeometry relative="1" as="geometry" />
        </mxCell>
        <mxCell id="MtrxTVjE-Am2wECLgYfl-19" style="edgeStyle=orthogonalEdgeStyle;rounded=0;orthogonalLoop=1;jettySize=auto;html=1;" parent="1" source="MtrxTVjE-Am2wECLgYfl-9" edge="1">
          <mxGeometry relative="1" as="geometry">
            <mxPoint x="75" y="360" as="targetPoint" />
          </mxGeometry>
        </mxCell>
        <mxCell id="MtrxTVjE-Am2wECLgYfl-20" style="edgeStyle=orthogonalEdgeStyle;rounded=0;orthogonalLoop=1;jettySize=auto;html=1;" parent="1" source="MtrxTVjE-Am2wECLgYfl-10" edge="1">
          <mxGeometry relative="1" as="geometry">
            <mxPoint x="170" y="359" as="targetPoint" />
          </mxGeometry>
        </mxCell>
        <mxCell id="MtrxTVjE-Am2wECLgYfl-21" style="edgeStyle=orthogonalEdgeStyle;rounded=0;orthogonalLoop=1;jettySize=auto;html=1;" parent="1" source="MtrxTVjE-Am2wECLgYfl-11" edge="1">
          <mxGeometry relative="1" as="geometry">
            <mxPoint x="270" y="360" as="targetPoint" />
          </mxGeometry>
        </mxCell>
        <mxCell id="MtrxTVjE-Am2wECLgYfl-22" style="edgeStyle=orthogonalEdgeStyle;rounded=0;orthogonalLoop=1;jettySize=auto;html=1;entryX=0.5;entryY=0;entryDx=0;entryDy=0;exitX=0.768;exitY=1.033;exitDx=0;exitDy=0;exitPerimeter=0;" parent="1" edge="1" target="MtrxTVjE-Am2wECLgYfl-8" source="MtrxTVjE-Am2wECLgYfl-14">
          <mxGeometry relative="1" as="geometry">
            <mxPoint x="440" y="240" as="sourcePoint" />
            <mxPoint x="329" y="360" as="targetPoint" />
          </mxGeometry>
        </mxCell>
        <mxCell id="MtrxTVjE-Am2wECLgYfl-27" value="Sensors" style="rounded=1;whiteSpace=wrap;html=1;" parent="1" vertex="1">
          <mxGeometry x="40" y="570" width="80" height="60" as="geometry" />
        </mxCell>
        <mxCell id="chsQC9fSaEB9PbkVShiE-4" style="edgeStyle=orthogonalEdgeStyle;rounded=0;orthogonalLoop=1;jettySize=auto;html=1;" edge="1" parent="1" source="chsQC9fSaEB9PbkVShiE-2">
          <mxGeometry relative="1" as="geometry">
            <mxPoint x="370" y="360" as="targetPoint" />
          </mxGeometry>
        </mxCell>
        <mxCell id="chsQC9fSaEB9PbkVShiE-2" value="DFRobot&lt;br&gt;ESP_EC" style="rounded=1;whiteSpace=wrap;html=1;" vertex="1" parent="1">
          <mxGeometry x="330" y="284" width="80" height="45" as="geometry" />
        </mxCell>
        <mxCell id="chsQC9fSaEB9PbkVShiE-5" value="SD_MMC&lt;div&gt;library&lt;/div&gt;" style="rounded=1;whiteSpace=wrap;html=1;" vertex="1" parent="1">
          <mxGeometry x="370" y="382.5" width="60" height="45" as="geometry" />
        </mxCell>
      </root>
    </mxGraphModel>
  </diagram>
</mxfile>
